<svg xmlns="http://www.w3.org/2000/svg" viewBox="0 10.399999618530273 164.0500030517578 36.19999694824219" data-asc="0.92" width="164.0500030517578" height="36.19999694824219"><defs/><g fill="#ffffff"><g transform="translate(0, 0)"><path d="M15.45 46.60Q10.90 46.60 7.40 44.42Q3.90 42.25 1.95 38.23Q0 34.20 0 28.65Q0 23.30 1.98 19.17Q3.95 15.05 7.58 12.73Q11.20 10.40 16.05 10.40Q18.55 10.40 20.60 10.88Q22.65 11.35 24.45 12.20L23 16.20Q21.45 15.45 19.83 15Q18.20 14.55 16 14.55Q12.80 14.55 10.28 16.20Q7.75 17.85 6.30 20.95Q4.85 24.05 4.85 28.45Q4.85 32.65 6.28 35.80Q7.70 38.95 10.23 40.70Q12.75 42.45 16 42.45Q18.45 42.45 20.25 41.85Q22.05 41.25 23.75 40.30L25.20 44.25Q23.35 45.25 20.98 45.92Q18.60 46.60 15.45 46.60ZM55.75 46.50L51.85 36.50L35.65 36.50L31.75 46.40L27.70 44.75L41.40 11L46.60 11L60.10 44.75L55.75 46.50M37.15 32.50L50.30 32.50L43.75 15.70L37.15 32.50ZM73.80 46.60Q70.15 46.60 67.15 45.63Q64.15 44.65 62.10 43.05L64.50 39.05Q66.30 40.55 68.55 41.50Q70.80 42.45 73.80 42.45Q77.40 42.45 79.50 40.95Q81.60 39.45 81.60 36.90Q81.60 35.45 81 34.33Q80.40 33.20 78.67 32.13Q76.95 31.05 73.60 29.80Q70 28.40 67.85 26.97Q65.70 25.55 64.78 23.72Q63.85 21.90 63.85 19.40Q63.85 16.90 65.22 14.88Q66.60 12.85 69.28 11.63Q71.95 10.40 75.75 10.40Q78.85 10.40 81.33 11.02Q83.80 11.65 86.15 12.80L84.40 16.85Q82.70 15.85 80.43 15.17Q78.15 14.50 75.65 14.50Q72.35 14.50 70.45 15.80Q68.55 17.10 68.55 19.15Q68.55 20.45 69.10 21.45Q69.65 22.45 71.28 23.40Q72.90 24.35 76.15 25.55Q80.05 27 82.33 28.60Q84.60 30.20 85.55 32.08Q86.50 33.95 86.50 36.35Q86.50 39.60 84.88 41.90Q83.25 44.20 80.38 45.40Q77.50 46.60 73.80 46.60ZM102.20 46.60Q98.55 46.60 95.55 45.63Q92.55 44.65 90.50 43.05L92.90 39.05Q94.70 40.55 96.95 41.50Q99.20 42.45 102.20 42.45Q105.80 42.45 107.90 40.95Q110 39.45 110 36.90Q110 35.45 109.40 34.33Q108.80 33.20 107.08 32.13Q105.35 31.05 102 29.80Q98.40 28.40 96.25 26.97Q94.10 25.55 93.17 23.72Q92.25 21.90 92.25 19.40Q92.25 16.90 93.63 14.88Q95 12.85 97.67 11.63Q100.35 10.40 104.15 10.40Q107.25 10.40 109.72 11.02Q112.20 11.65 114.55 12.80L112.80 16.85Q111.10 15.85 108.83 15.17Q106.55 14.50 104.05 14.50Q100.75 14.50 98.85 15.80Q96.95 17.10 96.95 19.15Q96.95 20.45 97.50 21.45Q98.05 22.45 99.67 23.40Q101.30 24.35 104.55 25.55Q108.45 27 110.72 28.60Q113 30.20 113.95 32.08Q114.90 33.95 114.90 36.35Q114.90 39.60 113.28 41.90Q111.65 44.20 108.78 45.40Q105.90 46.60 102.20 46.60ZM121.90 46L121.90 11L126.65 11L126.65 46L121.90 46ZM159.70 46.50L155.80 36.50L139.60 36.50L135.70 46.40L131.65 44.75L145.35 11L150.55 11L164.05 44.75L159.70 46.50M141.10 32.50L154.25 32.50L147.70 15.70L141.10 32.50Z"/></g></g></svg>